<svg width="100" height="78" viewBox="0 0 100 78" fill="none" xmlns="http://www.w3.org/2000/svg">
<path d="M5.23782 68.8174L5.23804 68.8174C13.8305 69.2688 31.3044 70.9208 43.4176 77.0212L43.4177 77.0212C44.9595 77.798 46.7222 76.7248 46.7222 75.1309V11.9157C46.7222 11.168 46.3551 10.4891 45.699 10.0869C39.9375 6.55956 32.3598 4.29639 25.0065 2.84897C17.6613 1.40314 10.5801 0.778718 5.8364 0.508633L5.23782 68.8174ZM5.23782 68.8174C2.55825 68.6778 0.5 66.5344 0.5 63.9938V5.33929C0.5 2.56996 2.90679 0.343353 5.83616 0.50862L5.23782 68.8174ZM99.4983 5.33901V5.33929V63.9921C99.4983 66.5308 97.4401 68.6744 94.7602 68.8157C86.1713 69.2671 68.7061 70.9173 56.5929 77.0142C55.0451 77.7932 53.276 76.7171 53.276 75.1188V11.9469C53.276 11.1942 53.6505 10.484 54.2992 10.0869L54.0556 9.68894L54.2992 10.0869C60.0616 6.55955 67.6398 4.29595 74.9933 2.84832C82.3388 1.40224 89.4201 0.777832 94.1637 0.508625C97.0932 0.343307 99.4998 2.56994 99.4983 5.33901Z" fill="white" stroke="black"/>
</svg>
