<svg width="100" height="75" viewBox="0 0 100 75" fill="none" xmlns="http://www.w3.org/2000/svg">
<path d="M79.7715 29.7715L85.7461 35.7461C88.6992 38.6992 93.748 36.6074 93.748 32.4316V9.375C93.75 7.64844 92.3516 6.25 90.625 6.25H67.5664C63.3906 6.25 61.2988 11.2988 64.252 14.252L70.2265 20.2265L79.7715 29.7715ZM79.7715 29.7715L79.418 29.418L79.0644 29.7715L60.668 48.168C58.2285 50.6094 54.2715 50.6094 51.8301 48.168L37.8536 34.1914L37.5 33.8379L37.1464 34.1914L28.5039 42.8359L79.7715 29.7715ZM12 62.5V63H12.5H96.875C98.3254 63 99.5 64.1746 99.5 65.625V71.875C99.5 73.3254 98.3254 74.5 96.875 74.5H6.25C3.07497 74.5 0.5 71.925 0.5 68.75V3.125C0.5 1.67458 1.67458 0.5 3.125 0.5H9.375C10.8254 0.5 12 1.67458 12 3.125V62.5ZM70.9337 20.9336L71.2872 20.5801L70.9336 20.2265L64.6055 13.8984C61.9674 11.2603 63.836 6.75 67.5664 6.75H90.625C92.0755 6.75 93.2497 7.92456 93.248 9.37443V9.375V32.4316C93.248 36.162 88.7378 38.0306 86.0996 35.3925L79.7715 29.0644L79.418 28.7109L79.0644 29.0644L60.3144 47.8144L60.3143 47.8146C58.0702 50.0604 54.4299 50.0606 52.1836 47.8144L37.8536 33.4843L37.5 33.1307L37.1464 33.4844L28.1504 42.4824C27.1249 43.5078 25.463 43.5078 24.4375 42.4824L20.0196 38.0644C18.9941 37.039 18.9941 35.377 20.0196 34.3516L33.4356 20.9356L33.4357 20.9354C35.6798 18.6896 39.3201 18.6894 41.5664 20.9356L55.8964 35.2657L56.25 35.6192L56.6036 35.2656L70.9337 20.9336Z" fill="white" stroke="black"/>
</svg>
