<svg width="100" height="89" viewBox="0 0 100 89" fill="none" xmlns="http://www.w3.org/2000/svg">
<path d="M48.2807 55.583L48.2807 55.5829C45.5474 52.3584 40.6187 46.3101 36.3759 39.8556C34.2544 36.628 32.3111 33.309 30.8998 30.1977C29.484 27.0767 28.625 24.2103 28.625 21.875C28.625 10.0695 38.1945 0.5 50 0.5C61.8055 0.5 71.375 10.0695 71.375 21.875C71.375 24.2103 70.516 27.0767 69.1002 30.1977C67.6889 33.309 65.7456 36.628 63.6241 39.8556C59.3813 46.3101 54.4526 52.3584 51.7193 55.5829L51.719 55.5833C50.8112 56.6561 49.1906 56.6565 48.2807 55.583ZM96.3214 78.7111L96.3213 78.7111L72.7222 88.1504V39.2107L96.3869 28.4393C97.8803 27.8506 99.5 28.9512 99.5 30.559V74.0173C99.5 75.0278 99.1971 76.0151 98.6306 76.8517C98.064 77.6884 97.2596 78.336 96.3214 78.7111ZM42.2083 21.875C42.2083 26.1789 45.6961 29.6667 50 29.6667C54.3039 29.6667 57.7917 26.1789 57.7917 21.875C57.7917 17.5711 54.3039 14.0833 50 14.0833C45.6961 14.0833 42.2083 17.5711 42.2083 21.875ZM1.36974 39.8151C1.93633 38.9785 2.74057 38.3308 3.67874 37.9556L23.7917 29.9107C24.6742 32.3406 25.8575 34.863 27.2778 37.4413V77.456L3.61312 88.2273C2.11972 88.816 0.5 87.7155 0.5 86.1076V42.6494C0.5 42.6494 0.5 42.6493 0.5 42.6493C0.500247 41.6389 0.803184 40.6518 1.36974 39.8151ZM33.8333 47.7534C36.8813 52.02 40.1714 56.1531 43.2799 59.8214C44.9596 61.8047 47.4097 62.9427 50 62.9427C52.5902 62.9427 55.0403 61.8047 56.7199 59.8233C59.8302 56.1548 63.119 52.0202 66.1667 47.7548V88.1934L33.8333 77.4157V47.7534Z" fill="white" stroke="black"/>
</svg>
