<svg width="169" height="92" viewBox="0 0 169 92" fill="none" xmlns="http://www.w3.org/2000/svg">
<path d="M77.3324 49.5852C82.8271 47.2336 89.3451 41.1111 89.3451 41.1111V90C89.3451 90 73.4544 87.3121 66.9214 81.5259C57.4927 73.1751 61.3154 52.8444 61.3154 52.8444C61.3154 52.8444 71.6256 52.0274 77.3324 49.5852Z" fill="#F48B01" stroke="black"/>
<path d="M107.137 86.82L111.769 2C111.769 2 113.305 14.8362 120.578 19.9592C123.735 22.183 127.641 22.7194 131.851 22.1711C146.362 10.3417 168.629 2 168.629 2C168.629 2 148.002 20.0676 131.851 22.1711C126.611 26.4429 122.382 31.1696 120.578 36.1224C117.414 44.8117 121.398 55.0642 127.367 64.2809C140.692 67.7487 150.209 90 150.209 90C150.209 90 136.477 78.3469 127.367 64.2809C125.197 63.716 122.926 63.6495 120.578 64.2585C110.145 66.9651 107.707 80.5502 107.137 86.82L106.964 90C106.964 90 106.961 88.7603 107.137 86.82Z" fill="#F48B01"/>
<path d="M111.769 2L106.964 90C106.964 90 106.916 67.8027 120.578 64.2585C137.339 59.9103 150.209 90 150.209 90C150.209 90 112.584 58.0728 120.578 36.1224C127.376 17.4542 168.629 2 168.629 2C168.629 2 135.847 30.7144 120.578 19.9592C113.305 14.8362 111.769 2 111.769 2Z" stroke="black"/>
<path d="M47.1812 39.8081C71.2935 22.8922 106.964 2 106.964 2C102.902 12.4326 84.5257 42.8571 70.1247 46.5238C63.0689 48.3203 55.4712 43.7178 47.1812 39.8081C40.5871 44.4342 34.8573 48.763 30.958 52.2857C16.116 65.6941 1.35579 90 1.35579 90C1.35579 90 -3.01342 49.3949 18.8705 37.8519C29.1706 32.4188 38.551 35.738 47.1812 39.8081Z" fill="#F48B01"/>
<path d="M106.964 2C106.964 2 49.1157 35.8818 30.958 52.2857C16.116 65.6941 1.35579 90 1.35579 90C1.35579 90 -3.01342 49.3949 18.8705 37.8519C39.0647 27.2 55.7236 50.1905 70.1247 46.5238C84.5257 42.8571 102.902 12.4326 106.964 2Z" stroke="black"/>
</svg>
