<svg width="30" height="30" viewBox="0 0 30 30" fill="none" xmlns="http://www.w3.org/2000/svg">
<path d="M29.4316 9.90625C29.6602 9.66406 30 9.89062 30 10.2734V26.25C30 28.3203 28.7402 30 27.1875 30H2.8125C1.25977 30 0 28.3203 0 26.25V10.2812C0 9.89062 0.333984 9.67188 0.568359 9.91406C1.88086 11.2734 3.62109 13 9.59766 18.7891C10.834 19.9922 12.9199 22.5234 15 22.5078C17.0918 22.5312 19.2188 19.9453 20.4082 18.7891C26.3848 13 28.1191 11.2656 29.4316 9.90625ZM15 20C16.3594 20.0312 18.3164 17.7188 19.3008 16.7656C27.0762 9.24219 27.668 8.58594 29.4609 6.71094C29.8008 6.35937 30 5.8125 30 5.23438V3.75C30 1.67969 28.7402 0 27.1875 0H2.8125C1.25977 0 0 1.67969 0 3.75V5.23438C0 5.8125 0.199219 6.35156 0.539062 6.71094C2.33203 8.57812 2.92383 9.24219 10.6992 16.7656C11.6836 17.7188 13.6406 20.0312 15 20Z" fill="#F48B01"/>
</svg>
