<svg width="30" height="30" viewBox="0 0 30 30" fill="none" xmlns="http://www.w3.org/2000/svg">
<path d="M7.60415 29.705C-2.54225 22.0952 -2.52718 9.76839 7.60415 2.1699C8.0493 1.83603 8.73907 1.7813 9.26532 2.02798L14.3291 4.40179C14.5962 4.52694 14.796 4.71849 14.8938 4.94296C14.9916 5.16743 14.9812 5.41054 14.8642 5.6298L12.3324 10.3771C12.2242 10.5799 12.0311 10.7508 11.7821 10.8641C11.5331 10.9774 11.2417 11.0269 10.952 11.0052L6.59181 10.6782C4.9472 14.092 4.98149 17.8543 6.59181 21.1967L10.952 20.8697C11.2418 20.8479 11.5332 20.8975 11.7821 21.0107C12.0311 21.124 12.2243 21.295 12.3324 21.4977L14.8643 26.2451C14.9812 26.4644 14.9917 26.7075 14.8939 26.932C14.7961 27.1564 14.5962 27.348 14.3292 27.4731L9.2654 29.8469C9.00789 29.9676 8.70344 30.0193 8.40174 29.9935C8.10003 29.9678 7.81888 29.8661 7.60415 29.705ZM19.3067 5.59411C20.2311 6.76874 20.2311 8.2313 19.3067 9.40593C18.9981 9.7981 18.2827 9.87228 17.8444 9.55716L17.3776 9.22165C17.072 9.00204 17.0031 8.65786 17.2009 8.37732C17.3913 8.10694 17.4908 7.80579 17.4908 7.50002C17.4908 7.19426 17.3913 6.89311 17.2009 6.62273C17.0031 6.34218 17.072 5.998 17.3776 5.77839L17.8444 5.44288C18.2827 5.12777 18.9981 5.20195 19.3067 5.59411ZM26.4776 0.251126C31.176 4.44667 31.1723 10.5567 26.4776 14.7489C26.128 15.061 25.4987 15.0855 25.1063 14.8035L24.6534 14.4779C24.2971 14.2218 24.2645 13.8024 24.5807 13.5182C28.4625 10.0297 28.4593 4.96745 24.5807 1.48177C24.2645 1.19759 24.297 0.778177 24.6534 0.522064L25.1063 0.196458C25.4987 -0.0855534 26.128 -0.0610026 26.4776 0.251126ZM22.886 2.88439C25.7024 5.59857 25.707 9.39702 22.886 12.1156C22.5431 12.4461 21.8941 12.4819 21.491 12.192L21.0365 11.8651C20.6927 11.6179 20.646 11.215 20.9361 10.9317C23.0092 8.90642 23.0091 6.09345 20.9361 4.06833C20.646 3.78497 20.6927 3.38214 21.0365 3.13488L21.491 2.80798C21.8941 2.51812 22.5431 2.55386 22.886 2.88439Z" fill="#F48B01"/>
</svg>
